<svg width="17" height="17" viewBox="0 0 17 17" fill="none" xmlns="http://www.w3.org/2000/svg">
<path d="M6.44365 14.281C6.31698 14.281 6.19031 14.2343 6.09031 14.1343C5.89698 13.941 5.89698 13.621 6.09031 13.4277L10.437 9.08099C10.757 8.76099 10.757 8.24099 10.437 7.92099L6.09031 3.57432C5.89698 3.38099 5.89698 3.06099 6.09031 2.86766C6.28365 2.67432 6.60365 2.67432 6.79698 2.86766L11.1436 7.21432C11.4836 7.55432 11.677 8.01432 11.677 8.50099C11.677 8.98766 11.4903 9.44766 11.1436 9.78766L6.79698 14.1343C6.69698 14.2277 6.57031 14.281 6.44365 14.281Z" fill="#374584"/>
</svg>
