<svg width="18" height="19" viewBox="0 0 18 19" fill="none" xmlns="http://www.w3.org/2000/svg">
<g clip-path="url(#clip0_852_6209)">
<path d="M12.3867 3.65891C11.5452 2.94416 10.6752 2.20616 9.80221 1.33391L9.00121 0.535156L8.20696 1.33466C7.01723 2.6341 6.16319 4.20469 5.71921 5.90966C5.70796 5.87066 5.69746 5.83466 5.68696 5.79191L5.21146 3.94916L3.82621 5.24966C2.43496 6.55391 1.14946 8.11466 1.14871 10.6842C1.13409 12.419 1.69961 14.109 2.75545 15.4857C3.81128 16.8624 5.29688 17.8467 6.97621 18.2824C7.6357 18.4496 8.31336 18.5345 8.99371 18.5352C10.0255 18.5367 11.0474 18.3349 12.001 17.9411C12.9547 17.5473 13.8213 16.9693 14.5514 16.2402C15.2814 15.5112 15.8605 14.6453 16.2556 13.6922C16.6507 12.7391 16.8539 11.7174 16.8537 10.6857C16.8537 7.45166 14.783 5.69366 12.3867 3.65891ZM12.4385 15.1047C12.3567 15.1677 12.2697 15.2202 12.1857 15.2787C12.3586 14.8619 12.4478 14.4151 12.4482 13.9639C12.4482 12.0597 10.7232 11.2999 8.99821 9.57641C7.11796 11.4567 5.54821 12.0597 5.54821 13.9639C5.55164 14.4417 5.65484 14.9135 5.85121 15.3492C5.09192 14.8319 4.47148 14.1359 4.04458 13.3224C3.61768 12.5089 3.39743 11.6029 3.40321 10.6842C3.38417 9.74989 3.68505 8.83718 4.25596 8.09741C4.33771 8.22641 4.42396 8.35091 4.51546 8.47241C4.71149 8.73715 4.98063 8.93883 5.28977 9.05263C5.59891 9.16642 5.93457 9.18738 6.25546 9.11291C6.58097 9.04026 6.87866 8.87535 7.11289 8.63793C7.34712 8.40051 7.50798 8.10062 7.57621 7.77416C7.8414 6.36336 8.36057 5.01244 9.10846 3.78716C9.74146 4.36916 10.361 4.89491 10.928 5.37716C13.3415 7.42541 14.603 8.59241 14.603 10.6857C14.6049 11.5388 14.4107 12.3811 14.0354 13.1473C13.6601 13.9135 13.1137 14.5832 12.4385 15.1047Z" fill="#EFC25F"/>
</g>
<defs>
<clipPath id="clip0_852_6209">
<rect width="18" height="18" fill="white" transform="translate(0 0.5)"/>
</clipPath>
</defs>
</svg>
