<svg width="27" height="27" viewBox="0 0 27 27" fill="none" xmlns="http://www.w3.org/2000/svg">
<rect width="27" height="27" rx="13.5" fill="#F7F9FB"/>
<path d="M12 8.5C12 9.32843 12.6716 10 13.5 10C14.3284 10 15 9.32843 15 8.5C15 7.67157 14.3284 7 13.5 7C12.6716 7 12 7.67157 12 8.5Z" fill="#BFBFBF"/>
<path d="M12 13.5C12 14.3284 12.6716 15 13.5 15C14.3284 15 15 14.3284 15 13.5C15 12.6716 14.3284 12 13.5 12C12.6716 12 12 12.6716 12 13.5Z" fill="#BFBFBF"/>
<path d="M12 18.5C12 19.3284 12.6716 20 13.5 20C14.3284 20 15 19.3284 15 18.5C15 17.6716 14.3284 17 13.5 17C12.6716 17 12 17.6716 12 18.5Z" fill="#BFBFBF"/>
</svg>
