<svg width="50" height="50" viewBox="0 0 50 50" fill="none" xmlns="http://www.w3.org/2000/svg">
<g filter="url(#filter0_d_852_5286)">
<rect x="10" y="10" width="26" height="26.0018" rx="2" fill="white"/>
<path d="M28.925 16.32C28.8328 15.9238 28.6609 15.5504 28.4199 15.2227C28.1789 14.8949 27.8737 14.6196 27.5229 14.4135C27.1721 14.2074 26.7831 14.0748 26.3795 14.0237C25.9758 13.9727 25.566 14.0042 25.175 14.1165L23.882 14.4863C23.5545 14.5804 23.2528 14.7482 23 14.9768C22.7472 14.7482 22.4455 14.5804 22.118 14.4863L20.825 14.1165C20.4342 14.0048 20.0248 13.9737 19.6216 14.025C19.2184 14.0764 18.8298 14.2091 18.4795 14.4152C18.1291 14.6212 17.8243 14.8963 17.5835 15.2238C17.3427 15.5512 17.171 15.9242 17.0788 16.32C16.2161 16.477 15.4357 16.9313 14.8732 17.6039C14.3108 18.2765 14.0018 19.125 14 20.0018V25.2518C14.0012 26.246 14.3967 27.1991 15.0997 27.9021C15.8027 28.6051 16.7558 29.0006 17.75 29.0018H22.25V30.5018H20C19.8011 30.5018 19.6103 30.5808 19.4697 30.7215C19.329 30.8621 19.25 31.0529 19.25 31.2518C19.25 31.4507 19.329 31.6415 19.4697 31.7821C19.6103 31.9228 19.8011 32.0018 20 32.0018H26C26.1989 32.0018 26.3897 31.9228 26.5303 31.7821C26.671 31.6415 26.75 31.4507 26.75 31.2518C26.75 31.0529 26.671 30.8621 26.5303 30.7215C26.3897 30.5808 26.1989 30.5018 26 30.5018H23.75V29.0018H28.25C29.2442 29.0006 30.1973 28.6051 30.9003 27.9021C31.6033 27.1991 31.9988 26.246 32 25.2518V20.0018C31.9984 19.1255 31.6899 18.2775 31.1282 17.6049C30.5665 16.9324 29.787 16.4778 28.925 16.32ZM23.75 16.65C23.7501 16.4872 23.8032 16.3287 23.9013 16.1987C23.9994 16.0687 24.1371 15.9741 24.2938 15.9293L25.5875 15.5595C25.8108 15.4957 26.0458 15.4845 26.2741 15.527C26.5024 15.5694 26.7177 15.6643 26.9032 15.8041C27.0886 15.9439 27.239 16.1249 27.3425 16.3327C27.4461 16.5405 27.5 16.7696 27.5 17.0018V19.9553C27.499 20.2808 27.3924 20.5971 27.1963 20.8569C27.0002 21.1167 26.7252 21.3058 26.4125 21.396L23.75 22.1565V16.65ZM19.1 15.8018C19.285 15.6625 19.4999 15.5681 19.7277 15.526C19.9555 15.484 20.1899 15.4955 20.4125 15.5595L21.7062 15.9293C21.8629 15.9741 22.0006 16.0687 22.0987 16.1987C22.1968 16.3287 22.2499 16.4872 22.25 16.65V22.1565L19.5875 21.396C19.2748 21.3058 18.9998 21.1167 18.8037 20.8569C18.6076 20.5971 18.501 20.2808 18.5 19.9553V17.0018C18.4992 16.7688 18.5531 16.5389 18.6573 16.3305C18.7615 16.1221 18.9131 15.941 19.1 15.8018ZM30.5 25.2518C30.5 25.8485 30.2629 26.4208 29.841 26.8428C29.419 27.2647 28.8467 27.5018 28.25 27.5018H17.75C17.1533 27.5018 16.581 27.2647 16.159 26.8428C15.7371 26.4208 15.5 25.8485 15.5 25.2518V20.0018C15.5019 19.5381 15.6471 19.0863 15.9156 18.7083C16.1841 18.3302 16.5628 18.0444 17 17.8898V19.9553C17.0018 20.6066 17.2148 21.2396 17.607 21.7596C17.9991 22.2795 18.5493 22.6583 19.175 22.839L21.7632 23.5793C22.5721 23.8099 23.4294 23.8099 24.2382 23.5793L26.8265 22.839C27.4519 22.658 28.0018 22.2792 28.3936 21.7592C28.7855 21.2393 28.9983 20.6064 29 19.9553V17.8898C29.4372 18.0444 29.8159 18.3302 30.0844 18.7083C30.3529 19.0863 30.4981 19.5381 30.5 20.0018V25.2518Z" fill="#70C779"/>
</g>
<defs>
<filter id="filter0_d_852_5286" x="0" y="0" width="50" height="50" filterUnits="userSpaceOnUse" color-interpolation-filters="sRGB">
<feFlood flood-opacity="0" result="BackgroundImageFix"/>
<feColorMatrix in="SourceAlpha" type="matrix" values="0 0 0 0 0 0 0 0 0 0 0 0 0 0 0 0 0 0 127 0" result="hardAlpha"/>
<feOffset dx="2" dy="2"/>
<feGaussianBlur stdDeviation="6"/>
<feComposite in2="hardAlpha" operator="out"/>
<feColorMatrix type="matrix" values="0 0 0 0 0 0 0 0 0 0 0 0 0 0 0 0 0 0 0.12 0"/>
<feBlend mode="normal" in2="BackgroundImageFix" result="effect1_dropShadow_852_5286"/>
<feBlend mode="normal" in="SourceGraphic" in2="effect1_dropShadow_852_5286" result="shape"/>
</filter>
</defs>
</svg>
