<svg width="18" height="18" viewBox="0 0 18 18" fill="none" xmlns="http://www.w3.org/2000/svg">
<path d="M14.925 2.32005C14.8328 1.92379 14.6609 1.55042 14.4199 1.22266C14.1789 0.894903 13.8737 0.619594 13.5229 0.41348C13.1721 0.207365 12.7831 0.0747528 12.3795 0.0237068C11.9758 -0.0273392 11.566 0.00424816 11.175 0.116548L9.882 0.486298C9.55446 0.580438 9.25277 0.748212 9 0.976798C8.74723 0.748212 8.44554 0.580438 8.118 0.486298L6.825 0.116548C6.4342 0.00483346 6.02478 -0.0263036 5.62158 0.0250267C5.21838 0.076357 4.82982 0.209084 4.47947 0.415151C4.12913 0.621219 3.82432 0.896329 3.58353 1.22378C3.34274 1.55124 3.17101 1.9242 3.07875 2.32005C2.2161 2.477 1.43572 2.93127 0.873249 3.6039C0.310783 4.27653 0.00179699 5.12499 0 6.0018L0 11.2518C0.00119089 12.246 0.396661 13.1991 1.09966 13.9021C1.80267 14.6051 2.7558 15.0006 3.75 15.0018H8.25V16.5018H6C5.80109 16.5018 5.61032 16.5808 5.46967 16.7215C5.32902 16.8621 5.25 17.0529 5.25 17.2518C5.25 17.4507 5.32902 17.6415 5.46967 17.7821C5.61032 17.9228 5.80109 18.0018 6 18.0018H12C12.1989 18.0018 12.3897 17.9228 12.5303 17.7821C12.671 17.6415 12.75 17.4507 12.75 17.2518C12.75 17.0529 12.671 16.8621 12.5303 16.7215C12.3897 16.5808 12.1989 16.5018 12 16.5018H9.75V15.0018H14.25C15.2442 15.0006 16.1973 14.6051 16.9003 13.9021C17.6033 13.1991 17.9988 12.246 18 11.2518V6.0018C17.9984 5.12552 17.6899 4.27749 17.1282 3.60494C16.5665 2.93238 15.787 2.47778 14.925 2.32005ZM9.75 2.65005C9.75007 2.48716 9.80317 2.32872 9.90127 2.19869C9.99937 2.06865 10.1371 1.97409 10.2938 1.9293L11.5875 1.55955C11.8108 1.49569 12.0458 1.48454 12.2741 1.52697C12.5024 1.56941 12.7177 1.66427 12.9032 1.80409C13.0886 1.9439 13.239 2.12486 13.3425 2.3327C13.4461 2.54053 13.5 2.76958 13.5 3.0018V5.9553C13.499 6.28076 13.3924 6.59711 13.1963 6.85689C13.0002 7.11666 12.7252 7.30584 12.4125 7.39605L9.75 8.15655V2.65005ZM5.1 1.8018C5.28505 1.66249 5.49994 1.56809 5.72771 1.52605C5.95549 1.48401 6.18992 1.49548 6.4125 1.55955L7.70625 1.9293C7.86286 1.97409 8.00063 2.06865 8.09873 2.19869C8.19683 2.32872 8.24993 2.48716 8.25 2.65005V8.15655L5.5875 7.39605C5.27478 7.30584 4.99975 7.11666 4.80367 6.85689C4.60759 6.59711 4.50104 6.28076 4.5 5.9553V3.0018C4.49924 2.7688 4.55312 2.53886 4.65732 2.33046C4.76152 2.12205 4.91314 1.94099 5.1 1.8018ZM16.5 11.2518C16.5 11.8485 16.2629 12.4208 15.841 12.8428C15.419 13.2647 14.8467 13.5018 14.25 13.5018H3.75C3.15326 13.5018 2.58097 13.2647 2.15901 12.8428C1.73705 12.4208 1.5 11.8485 1.5 11.2518V6.0018C1.50192 5.5381 1.64706 5.08633 1.91557 4.70827C2.18407 4.33022 2.56282 4.04436 3 3.8898V5.9553C3.00184 6.60655 3.21481 7.23965 3.60697 7.7596C3.99913 8.27955 4.54933 8.65831 5.175 8.83905L7.76325 9.5793C8.57214 9.80987 9.42936 9.80987 10.2382 9.5793L12.8265 8.83905C13.4519 8.65804 14.0018 8.27916 14.3936 7.75924C14.7855 7.23931 14.9983 6.60636 15 5.9553V3.8898C15.4372 4.04436 15.8159 4.33022 16.0844 4.70827C16.3529 5.08633 16.4981 5.5381 16.5 6.0018V11.2518Z" fill="#70C779"/>
</svg>
