<svg width="18" height="18" viewBox="0 0 18 18" fill="none" xmlns="http://www.w3.org/2000/svg">
<g clip-path="url(#clip0_852_4615)">
<path d="M16 8H10V2C10 1.44772 9.55228 1 9 1C8.44772 1 8 1.44772 8 2V8H2C1.44772 8 1 8.44772 1 9C1 9.55228 1.44772 10 2 10H8V16C8 16.5523 8.44772 17 9 17C9.55228 17 10 16.5523 10 16V10H16C16.5523 10 17 9.55228 17 9C17 8.44772 16.5523 8 16 8Z" fill="#E7E7E7"/>
</g>
<defs>
<clipPath id="clip0_852_4615">
<rect width="16" height="16" fill="white" transform="translate(1 1)"/>
</clipPath>
</defs>
</svg>
