<svg width="18" height="18" viewBox="0 0 18 18" fill="none" xmlns="http://www.w3.org/2000/svg">
<g clip-path="url(#clip0_852_5439)">
<path d="M12.6465 3.36544L13.9117 2.09944C14.1755 1.83568 14.5332 1.6875 14.9062 1.6875C15.2793 1.6875 15.637 1.83568 15.9008 2.09944C16.1645 2.36319 16.3127 2.72093 16.3127 3.09394C16.3127 3.46695 16.1645 3.82468 15.9008 4.08844L5.124 14.8652C4.72749 15.2615 4.23852 15.5527 3.70125 15.7127L1.6875 16.3127L2.2875 14.2989C2.44746 13.7617 2.73873 13.2727 3.135 12.8762L12.6473 3.36544H12.6465ZM12.6465 3.36544L14.625 5.34394L12.6465 3.36544Z" fill="white"/>
<path d="M12.6465 3.36544L13.9117 2.09944C14.1755 1.83568 14.5332 1.6875 14.9062 1.6875C15.2793 1.6875 15.637 1.83568 15.9008 2.09944C16.1645 2.36319 16.3127 2.72093 16.3127 3.09394C16.3127 3.46695 16.1645 3.82468 15.9008 4.08844L5.124 14.8652C4.72749 15.2615 4.23852 15.5527 3.70125 15.7127L1.6875 16.3127L2.2875 14.2989C2.44746 13.7617 2.73873 13.2727 3.135 12.8762L12.6473 3.36544H12.6465ZM12.6465 3.36544L14.625 5.34394" stroke="#C4465C" stroke-width="1.5" stroke-linecap="round" stroke-linejoin="round"/>
</g>
<defs>
<clipPath id="clip0_852_5439">
<rect width="18" height="18" fill="white"/>
</clipPath>
</defs>
</svg>
