<svg width="14" height="14" viewBox="0 0 14 14" fill="none" xmlns="http://www.w3.org/2000/svg">
<path d="M5.25001 10.4307V3.91485C5.24934 3.79899 5.28318 3.68555 5.34723 3.58899C5.41128 3.49244 5.50264 3.41715 5.60965 3.37272C5.71666 3.32829 5.83447 3.31673 5.94808 3.33952C6.06168 3.36231 6.16592 3.41842 6.24751 3.50068L9.50252 6.76152C9.61117 6.87081 9.67215 7.01866 9.67215 7.17277C9.67215 7.32688 9.61117 7.47472 9.50252 7.58402L6.24751 10.8449C6.16592 10.9271 6.06168 10.9832 5.94808 11.006C5.83447 11.0288 5.71666 11.0172 5.60965 10.9728C5.50264 10.9284 5.41128 10.8531 5.34723 10.7565C5.28318 10.66 5.24934 10.5465 5.25001 10.4307Z" fill="white"/>
</svg>
