<svg width="16" height="17" viewBox="0 0 16 17" fill="none" xmlns="http://www.w3.org/2000/svg">
<g clip-path="url(#clip0_852_4406)">
<path d="M8.66667 1.16667V2.5C8.66667 2.67681 8.59643 2.84638 8.47141 2.9714C8.34638 3.09643 8.17681 3.16667 8 3.16667C7.82319 3.16667 7.65362 3.09643 7.5286 2.9714C7.40357 2.84638 7.33333 2.67681 7.33333 2.5V1.16667C7.33333 0.989856 7.40357 0.820286 7.5286 0.695262C7.65362 0.570238 7.82319 0.5 8 0.5C8.17681 0.5 8.34638 0.570238 8.47141 0.695262C8.59643 0.820286 8.66667 0.989856 8.66667 1.16667ZM8 13.8333C7.82319 13.8333 7.65362 13.9036 7.5286 14.0286C7.40357 14.1536 7.33333 14.3232 7.33333 14.5V15.8333C7.33333 16.0101 7.40357 16.1797 7.5286 16.3047C7.65362 16.4298 7.82319 16.5 8 16.5C8.17681 16.5 8.34638 16.4298 8.47141 16.3047C8.59643 16.1797 8.66667 16.0101 8.66667 15.8333V14.5C8.66667 14.3232 8.59643 14.1536 8.47141 14.0286C8.34638 13.9036 8.17681 13.8333 8 13.8333ZM2.66667 8.5C2.66667 8.32319 2.59643 8.15362 2.4714 8.0286C2.34638 7.90357 2.17681 7.83333 2 7.83333H0.666667C0.489856 7.83333 0.320286 7.90357 0.195262 8.0286C0.0702379 8.15362 0 8.32319 0 8.5C0 8.67681 0.0702379 8.84638 0.195262 8.97141C0.320286 9.09643 0.489856 9.16667 0.666667 9.16667H2C2.17681 9.16667 2.34638 9.09643 2.4714 8.97141C2.59643 8.84638 2.66667 8.67681 2.66667 8.5ZM15.3333 7.83333H14C13.8232 7.83333 13.6536 7.90357 13.5286 8.0286C13.4036 8.15362 13.3333 8.32319 13.3333 8.5C13.3333 8.67681 13.4036 8.84638 13.5286 8.97141C13.6536 9.09643 13.8232 9.16667 14 9.16667H15.3333C15.5101 9.16667 15.6797 9.09643 15.8047 8.97141C15.9298 8.84638 16 8.67681 16 8.5C16 8.32319 15.9298 8.15362 15.8047 8.0286C15.6797 7.90357 15.5101 7.83333 15.3333 7.83333ZM12.012 1.57867C11.9362 1.53474 11.8526 1.50616 11.7657 1.49458C11.6789 1.483 11.5907 1.48864 11.5061 1.51118C11.4214 1.53371 11.3421 1.5727 11.2725 1.62592C11.2029 1.67914 11.1446 1.74554 11.1007 1.82133L10.434 2.97533C10.3455 3.12837 10.3215 3.31028 10.3671 3.48105C10.4127 3.65182 10.5243 3.79748 10.6773 3.886C10.7785 3.94514 10.8935 3.97621 11.0107 3.976C11.1277 3.976 11.2426 3.94519 11.344 3.88668C11.4453 3.82817 11.5295 3.74401 11.588 3.64267L12.2547 2.48867C12.343 2.33577 12.367 2.15409 12.3215 1.98348C12.276 1.81288 12.1647 1.6673 12.012 1.57867ZM5.32467 13.114C5.17171 13.0255 4.98987 13.0013 4.8191 13.0468C4.64834 13.0923 4.50263 13.2038 4.414 13.3567L3.74733 14.5107C3.65882 14.6636 3.63466 14.8455 3.68016 15.0162C3.72567 15.187 3.83711 15.3327 3.99 15.4213C4.09114 15.4804 4.2062 15.5115 4.32333 15.5113C4.44047 15.5114 4.55557 15.4807 4.65704 15.4222C4.75851 15.3637 4.84277 15.2794 4.90133 15.178L5.568 14.024C5.65625 13.871 5.68019 13.6893 5.63456 13.5187C5.58894 13.3481 5.47749 13.2025 5.32467 13.114ZM3.14333 4.914L1.98933 4.24733C1.8367 4.1652 1.65808 4.14573 1.49134 4.19307C1.3246 4.24041 1.18285 4.35082 1.09615 4.50091C1.00944 4.65099 0.984603 4.82894 1.02689 4.99704C1.06918 5.16513 1.17527 5.31014 1.32267 5.40133L2.47667 6.068C2.6293 6.15014 2.80792 6.1696 2.97466 6.12226C3.1414 6.07493 3.28315 5.96451 3.36985 5.81443C3.45656 5.66434 3.4814 5.48639 3.43911 5.3183C3.39682 5.15021 3.29073 5.00519 3.14333 4.914ZM14.6767 11.6007L13.5227 10.934C13.37 10.8519 13.1914 10.8324 13.0247 10.8797C12.8579 10.9271 12.7162 11.0375 12.6295 11.1876C12.5428 11.3377 12.5179 11.5156 12.5602 11.6837C12.6025 11.8518 12.7086 11.9968 12.856 12.088L14.01 12.7547C14.1111 12.8138 14.2262 12.8449 14.3433 12.8447C14.4901 12.8447 14.6327 12.7962 14.7492 12.7069C14.8656 12.6176 14.9493 12.4923 14.9873 12.3505C15.0252 12.2088 15.0154 12.0585 14.9592 11.9229C14.9031 11.7873 14.8038 11.674 14.6767 11.6007ZM4.89933 1.82133C4.80814 1.67393 4.66313 1.56784 4.49504 1.52556C4.32694 1.48327 4.14899 1.50811 3.99891 1.59482C3.84882 1.68152 3.73841 1.82327 3.69107 1.99001C3.64373 2.15675 3.6632 2.33537 3.74533 2.488L4.412 3.642C4.47051 3.74334 4.55467 3.8275 4.65601 3.88601C4.75735 3.94453 4.87231 3.97533 4.98933 3.97533C5.10647 3.97554 5.22155 3.94447 5.32267 3.88533C5.47567 3.79681 5.58725 3.65115 5.63288 3.48038C5.67851 3.30961 5.65446 3.12771 5.566 2.97467L4.89933 1.82133ZM11.586 13.3547C11.4948 13.2073 11.3498 13.1012 11.1817 13.0589C11.0136 13.0166 10.8357 13.0414 10.6856 13.1281C10.5355 13.2149 10.4251 13.3566 10.3777 13.5233C10.3304 13.6901 10.3499 13.8687 10.432 14.0213L11.0987 15.1753C11.1899 15.3227 11.3349 15.4288 11.503 15.4711C11.6711 15.5134 11.849 15.4886 11.9991 15.4019C12.1492 15.3151 12.2596 15.1734 12.3069 15.0067C12.3543 14.8399 12.3348 14.6613 12.2527 14.5087L11.586 13.3547ZM13.1913 6.15467C13.3084 6.15466 13.4233 6.12385 13.5247 6.06533L14.6787 5.39867C14.8261 5.30748 14.9322 5.16246 14.9744 4.99437C15.0167 4.82628 14.9919 4.64832 14.9052 4.49824C14.8185 4.34816 14.6767 4.23774 14.51 4.1904C14.3433 4.14307 14.1646 4.16253 14.012 4.24467L12.858 4.91133C12.7312 4.98486 12.6322 5.09811 12.5763 5.23355C12.5204 5.369 12.5106 5.5191 12.5486 5.66064C12.5865 5.80218 12.6701 5.92727 12.7862 6.01657C12.9024 6.10587 13.0448 6.15441 13.1913 6.15467ZM2.47533 10.932L1.32133 11.5987C1.19425 11.672 1.09492 11.7853 1.03877 11.9209C0.982614 12.0565 0.972764 12.2068 1.01075 12.3485C1.04873 12.4903 1.13242 12.6156 1.24884 12.7049C1.36527 12.7942 1.50792 12.8427 1.65467 12.8427C1.77181 12.8429 1.88688 12.8118 1.988 12.7527L3.142 12.086C3.2894 11.9948 3.39549 11.8498 3.43778 11.6817C3.48006 11.5136 3.45522 11.3357 3.36852 11.1856C3.28181 11.0355 3.14007 10.9251 2.97333 10.8777C2.80659 10.8304 2.62796 10.8499 2.47533 10.932Z" fill="#5F6385"/>
</g>
<defs>
<clipPath id="clip0_852_4406">
<rect width="16" height="16" fill="white" transform="translate(0 0.5)"/>
</clipPath>
</defs>
</svg>
