<svg width="20" height="20" viewBox="0 0 20 20" fill="none" xmlns="http://www.w3.org/2000/svg">
<path d="M17.9375 17.9453C17.8208 18.0602 17.6637 18.1247 17.5 18.125C17.334 18.1243 17.1747 18.06 17.0547 17.9453L13.6797 14.5625C12.2583 15.7564 10.4308 16.3555 8.57844 16.2348C6.72607 16.114 4.99182 15.2828 3.73738 13.9146C2.48294 12.5463 1.80518 10.7465 1.84545 8.89063C1.88571 7.03477 2.6409 5.2661 3.9535 3.9535C5.2661 2.6409 7.03477 1.88571 8.89063 1.84545C10.7465 1.80518 12.5463 2.48294 13.9146 3.73738C15.2828 4.99182 16.114 6.72607 16.2348 8.57844C16.3555 10.4308 15.7564 12.2583 14.5625 13.6797L17.9375 17.0547C17.9966 17.1128 18.0434 17.1822 18.0755 17.2586C18.1075 17.3351 18.124 17.4171 18.124 17.5C18.124 17.5829 18.1075 17.6649 18.0755 17.7414C18.0434 17.8178 17.9966 17.8872 17.9375 17.9453ZM9.0625 15C10.2368 15 11.3848 14.6518 12.3612 13.9993C13.3376 13.3469 14.0986 12.4196 14.548 11.3347C14.9974 10.2497 15.115 9.05591 14.8859 7.90415C14.6568 6.75239 14.0913 5.69443 13.2609 4.86405C12.4306 4.03368 11.3726 3.46819 10.2208 3.23909C9.06909 3.00999 7.87525 3.12757 6.79032 3.57696C5.70538 4.02636 4.77807 4.78738 4.12565 5.7638C3.47323 6.74022 3.125 7.88817 3.125 9.0625C3.12707 10.6366 3.75329 12.1456 4.86634 13.2587C5.97938 14.3717 7.48841 14.9979 9.0625 15Z" fill="#1C1C1C" fill-opacity="0.2"/>
</svg>
