<svg width="22" height="22" viewBox="0 0 22 22" fill="none" xmlns="http://www.w3.org/2000/svg">
<g clip-path="url(#clip0_852_4112)">
<path d="M14.6693 14.6667C14.6693 14.9098 14.5727 15.143 14.4008 15.3149C14.2289 15.4868 13.9957 15.5834 13.7526 15.5834H11.9193V17.4167C11.9193 17.6598 11.8227 17.893 11.6508 18.0649C11.4789 18.2368 11.2457 18.3334 11.0026 18.3334C10.7595 18.3334 10.5263 18.2368 10.3544 18.0649C10.1825 17.893 10.0859 17.6598 10.0859 17.4167V15.5834H8.2526C8.00949 15.5834 7.77633 15.4868 7.60442 15.3149C7.43251 15.143 7.33594 14.9098 7.33594 14.6667C7.33594 14.4236 7.43251 14.1904 7.60442 14.0185C7.77633 13.8466 8.00949 13.75 8.2526 13.75H10.0859V11.9167C10.0859 11.6736 10.1825 11.4404 10.3544 11.2685C10.5263 11.0966 10.7595 11 11.0026 11C11.2457 11 11.4789 11.0966 11.6508 11.2685C11.8227 11.4404 11.9193 11.6736 11.9193 11.9167V13.75H13.7526C13.9957 13.75 14.2289 13.8466 14.4008 14.0185C14.5727 14.1904 14.6693 14.4236 14.6693 14.6667ZM20.1693 9.61127V17.4167C20.1678 18.6318 19.6845 19.7968 18.8252 20.656C17.966 21.5152 16.8011 21.9986 15.5859 22H6.41927C5.20414 21.9986 4.0392 21.5152 3.17997 20.656C2.32075 19.7968 1.83739 18.6318 1.83594 17.4167V4.58335C1.83739 3.36823 2.32075 2.20328 3.17997 1.34406C4.0392 0.48483 5.20414 0.00147666 6.41927 2.1128e-05H10.558C11.401 -0.00214855 12.2361 0.16281 13.0149 0.485359C13.7937 0.807908 14.5009 1.28165 15.0955 1.87919L18.2892 5.07469C18.8871 5.66891 19.3611 6.37586 19.6838 7.15458C20.0065 7.93331 20.1716 8.76833 20.1693 9.61127ZM13.7994 3.17535C13.5109 2.89592 13.187 2.65554 12.8359 2.46036V6.41669C12.8359 6.6598 12.9325 6.89296 13.1044 7.06487C13.2763 7.23678 13.5095 7.33336 13.7526 7.33336H17.7089C17.5136 6.98245 17.2729 6.65882 16.993 6.37085L13.7994 3.17535ZM18.3359 9.61127C18.3359 9.46002 18.3066 9.31519 18.2929 9.16669H13.7526C13.0233 9.16669 12.3238 8.87696 11.8081 8.36123C11.2923 7.84551 11.0026 7.14603 11.0026 6.41669V1.87644C10.8541 1.86269 10.7084 1.83335 10.558 1.83335H6.41927C5.68993 1.83335 4.99045 2.12309 4.47473 2.63881C3.959 3.15454 3.66927 3.85401 3.66927 4.58335V17.4167C3.66927 18.146 3.959 18.8455 4.47473 19.3612C4.99045 19.877 5.68993 20.1667 6.41927 20.1667H15.5859C16.3153 20.1667 17.0148 19.877 17.5305 19.3612C18.0462 18.8455 18.3359 18.146 18.3359 17.4167V9.61127Z" fill="#E8E8E8"/>
</g>
<defs>
<clipPath id="clip0_852_4112">
<rect width="22" height="22" fill="white"/>
</clipPath>
</defs>
</svg>
