<svg width="17" height="17" viewBox="0 0 17 17" fill="none" xmlns="http://www.w3.org/2000/svg">
<path d="M2.72292 6.43974C2.72292 6.31307 2.76958 6.18641 2.86958 6.08641C3.06292 5.89307 3.38292 5.89307 3.57625 6.08641L7.92292 10.4331C8.24292 10.7531 8.76292 10.7531 9.08292 10.4331L13.4296 6.08641C13.6229 5.89307 13.9429 5.89307 14.1362 6.08641C14.3296 6.27974 14.3296 6.59974 14.1362 6.79307L9.78958 11.1397C9.44958 11.4797 8.98958 11.6731 8.50292 11.6731C8.01625 11.6731 7.55625 11.4864 7.21625 11.1397L2.86958 6.79307C2.77625 6.69307 2.72292 6.56641 2.72292 6.43974Z" fill="#374584"/>
</svg>
