<svg width="20" height="20" viewBox="0 0 20 20" fill="none" xmlns="http://www.w3.org/2000/svg">
<path d="M15.0952 15C14.9625 15 14.8299 14.9516 14.7251 14.8477L10.1723 10.335C9.43214 9.6013 9.43214 8.39697 10.1723 7.6633L14.7251 3.15054C14.9276 2.94982 15.2628 2.94982 15.4653 3.15054C15.6678 3.35126 15.6678 3.68349 15.4653 3.88421L10.9125 8.39697C10.5773 8.7292 10.5773 9.26907 10.9125 9.6013L15.4653 14.1141C15.6678 14.3148 15.6678 14.647 15.4653 14.8477C15.3606 14.9446 15.2279 15 15.0952 15Z" fill="#787486"/>
<path d="M10.478 15C10.3454 15 10.2127 14.9516 10.1079 14.8477L5.55514 10.335C4.81495 9.6013 4.81495 8.39697 5.55514 7.6633L10.1079 3.15054C10.3104 2.94982 10.6456 2.94982 10.8481 3.15054C11.0506 3.35126 11.0506 3.68349 10.8481 3.88421L6.29532 8.39697C5.96014 8.7292 5.96014 9.26907 6.29532 9.6013L10.8481 14.1141C11.0506 14.3148 11.0506 14.647 10.8481 14.8477C10.7434 14.9446 10.6107 15 10.478 15Z" fill="#787486"/>
</svg>
