<svg width="15" height="15" viewBox="0 0 15 15" fill="none" xmlns="http://www.w3.org/2000/svg">
<path d="M7.5 9.6888C5.085 9.6888 3.125 7.79297 3.125 5.45964C3.125 3.1263 5.085 1.23047 7.5 1.23047C9.915 1.23047 11.875 3.1263 11.875 5.45964C11.875 7.79297 9.915 9.6888 7.5 9.6888ZM7.5 2.10547C5.56917 2.10547 4 3.61047 4 5.45964C4 7.3088 5.56917 8.8138 7.5 8.8138C9.43083 8.8138 11 7.3088 11 5.45964C11 3.61047 9.43083 2.10547 7.5 2.10547Z" fill="#374584" fill-opacity="0.6"/>
<path d="M9.61378 13.7724C9.45045 13.7724 9.28711 13.7315 9.11795 13.6557L7.54878 12.9149C7.53128 12.909 7.46712 12.909 7.44378 12.9149L5.88629 13.6499C5.54213 13.8132 5.18046 13.8074 4.90046 13.6265C4.60879 13.4399 4.43963 13.0957 4.44546 12.6874L4.45128 8.38236C4.45128 8.14319 4.63795 7.93319 4.88878 7.94486C5.12795 7.94486 5.32628 8.14319 5.32628 8.38236L5.32046 12.6874C5.32046 12.8157 5.35546 12.8799 5.37296 12.8857C5.38462 12.8915 5.43712 12.8973 5.51879 12.8565L7.08212 12.1157C7.33295 11.999 7.67713 11.999 7.92796 12.1157L9.49713 12.8565C9.57879 12.8973 9.63129 12.8915 9.64296 12.8857C9.66046 12.874 9.69546 12.8099 9.69546 12.6874V8.27734C9.69546 8.03818 9.89379 7.83984 10.133 7.83984C10.3721 7.83984 10.5705 8.03818 10.5705 8.27734V12.6874C10.5705 13.1015 10.4013 13.4399 10.1096 13.6265C9.95795 13.7257 9.78878 13.7724 9.61378 13.7724Z" fill="#374584" fill-opacity="0.6"/>
</svg>
