<svg width="15" height="15" viewBox="0 0 15 15" fill="none" xmlns="http://www.w3.org/2000/svg">
<path d="M7.5 9.2513C9.67462 9.2513 11.4375 7.55372 11.4375 5.45964C11.4375 3.36556 9.67462 1.66797 7.5 1.66797C5.32538 1.66797 3.5625 3.36556 3.5625 5.45964C3.5625 7.55372 5.32538 9.2513 7.5 9.2513Z" fill="#374584"/>
<path d="M9.71083 9.60596C9.90333 9.50679 10.125 9.65262 10.125 9.86846V12.6976C10.125 13.2226 9.7575 13.4793 9.3025 13.2635L7.73917 12.5226C7.605 12.4643 7.395 12.4643 7.26083 12.5226L5.6975 13.2635C5.2425 13.4735 4.875 13.2168 4.875 12.6918L4.88667 9.86846C4.88667 9.65262 5.11417 9.51262 5.30083 9.60596C5.96 9.93846 6.70667 10.1251 7.5 10.1251C8.29333 10.1251 9.04583 9.93846 9.71083 9.60596Z" fill="#374584"/>
</svg>
