<svg width="24" height="24" viewBox="0 0 24 24" fill="none" xmlns="http://www.w3.org/2000/svg">
<path d="M12.0225 2.91016C8.71253 2.91016 6.02253 5.60016 6.02253 8.91016V11.8002C6.02253 12.4102 5.76253 13.3402 5.45253 13.8602L4.30253 15.7702C3.59253 16.9502 4.08253 18.2602 5.38253 18.7002C9.69253 20.1402 14.3425 20.1402 18.6525 18.7002C19.8625 18.3002 20.3925 16.8702 19.7325 15.7702L18.5825 13.8602C18.2825 13.3402 18.0225 12.4102 18.0225 11.8002V8.91016C18.0225 5.61016 15.3225 2.91016 12.0225 2.91016Z" stroke="#292D32" stroke-width="1.5" stroke-miterlimit="10" stroke-linecap="round"/>
<path d="M13.8719 3.20141C13.5619 3.11141 13.2419 3.04141 12.9119 3.00141C11.9519 2.88141 11.0319 2.95141 10.1719 3.20141C10.4619 2.46141 11.1819 1.94141 12.0219 1.94141C12.8619 1.94141 13.5819 2.46141 13.8719 3.20141Z" stroke="#292D32" stroke-width="1.5" stroke-miterlimit="10" stroke-linecap="round" stroke-linejoin="round"/>
<path d="M15.0234 19.0586C15.0234 20.7086 13.6734 22.0586 12.0234 22.0586C11.2034 22.0586 10.4434 21.7186 9.90344 21.1786C9.36344 20.6386 9.02344 19.8786 9.02344 19.0586" stroke="#292D32" stroke-width="1.5" stroke-miterlimit="10"/>
</svg>
